<?xml version="1.0" encoding="UTF-8"?>
<svg id="Layer_1" data-name="Layer 1" xmlns="http://www.w3.org/2000/svg" viewBox="0 0 612 612">
  <defs>
    <style>
      .cls-1 {
        fill: #0b331c;
      }

      .cls-2 {
        fill: #86ba40;
      }

      .cls-3 {
        fill: #88bb40;
      }
    </style>
  </defs>
  <polygon class="cls-1" points="56.44 449.53 56.44 332.36 9.38 305.18 9.38 264.62 140.94 340.58 140.94 381.14 93.87 353.97 93.87 471.14 56.44 449.53"/>
  <path class="cls-1" d="M496.39,343.11l47.49-27.42c2.77-1.6,4.85-2.06,6.24-1.4,1.39.67,2.08,2.43,2.08,5.29v10.31c0,3.15-.7,5.79-2.08,7.92-1.39,2.13-3.47,3.99-6.24,5.59l-47.49,27.42v-27.71ZM457.33,329.36v150.39l39.07-22.56v-51.02l16.46-9.5,41.24,27.21,48.53-28.02-44.74-28.31,4.26-2.46c9.33-6.1,16.45-13.02,21.33-20.75,4.89-7.73,7.33-16.71,7.33-26.95v-54.95c0-5.39-5.86-8.73-10.5-5.98l-122.97,72.9Z"/>
  <path class="cls-2" d="M573.72,245.52l-2.05-43.58c-.25-5.37-6.1-8.56-10.75-5.87l-.84.49c-1.91,1.1-3.41,2.96-3.65,5.15-.45,3.97-3.28,7.88-8.52,10.94l-234.61,139.28c-11.53,6.7-30.25,6.78-41.83.17L35.11,214.9c-5.91-3.38-8.79-7.86-8.67-12.33.07-2.43-1.47-4.62-3.57-5.84h0c-4.84-2.79-10.87.77-10.76,6.36l.89,44c.05,2.5,1.4,4.79,3.55,6.05l246.01,145.83c17.98,10.51,40.23,10.55,58.25.12l249.33-147.01c2.32-1.34,3.7-3.87,3.57-6.55Z"/>
  <path class="cls-3" d="M273.99,276.74l-125.42-71.68c-10.57-6.05-10.61-15.92-.09-22.05l123.75-72.08c10.54-6.14,27.66-6.21,38.25-.16l30.99,17.71c2.24,1.28,2.26,3.38.02,4.68l-103.94,60.5,54.22,30.98,158.5-92.2c1.99-1.15,1.98-3.01-.01-4.15l-138.16-78.96c-11.59-6.61-30.3-6.53-41.83.17L42.07,182.42c-11.5,6.72-11.46,17.51.1,24.13l229.29,131.01c11.59,6.61,30.3,6.53,41.83-.17l228.2-132.9c11.5-6.72,11.45-17.51-.1-24.13l-29.03-16.58c-2.35-1.35-6.16-1.33-8.51.03l-193.62,112.77c-9.98,5.82-26.21,5.88-36.24.15"/>
  <path class="cls-1" d="M411.64,356.8v82.56l-76.09-35.95-14.73,8.68c-6.6,3.82-13.77,6.23-21.09,7.24v148.22l36.23-20.92v-85.94l82.49,38.31,29.32-16.93v-146.33l-36.13,21.04Z"/>
  <path class="cls-1" d="M262.57,411.97l-16.79-9.95v114.11l-57.24-33.04v-114.98l-37.52-21.44v120.61c0,7.21.79,13.58,2.36,19.11,1.57,5.53,3.83,10.44,6.77,14.72,2.94,4.29,6.51,8.12,10.72,11.48,4.21,3.37,8.95,6.58,14.22,9.62l63.96,36.93c10.66,6.16,19.02,8.75,25.08,7.78,6.05-.97,9.08-8.74,9.08-23.32v-124.36c-7.17-1.07-14.18-3.49-20.64-7.27Z"/>
</svg>